<svg id="Layer_1" data-name="Layer 1" xmlns="http://www.w3.org/2000/svg" xmlns:xlink="http://www.w3.org/1999/xlink" viewBox="0 0 2043.18 509.81"><defs><style>.cls-1{fill:#ec1c24;}.cls-2{fill:#fff;}.cls-3{fill-opacity:0.4;}.cls-4{fill:url(#linear-gradient);}.cls-5{fill:none;stroke:#fff;stroke-miterlimit:10;stroke-width:12px;}.cls-6{fill:url(#linear-gradient-2);}.cls-7{fill:url(#radial-gradient);}</style><linearGradient id="linear-gradient" x1="1262.55" y1="-899.45" x2="1228.65" y2="-994.75" gradientTransform="translate(-2980.78 2909.58) scale(2.64)" gradientUnits="userSpaceOnUse"><stop offset="0" stop-opacity="0.4"/><stop offset="1" stop-opacity="0"/></linearGradient><linearGradient id="linear-gradient-2" x1="1253.37" y1="-926.8" x2="1220.69" y2="-1018.68" gradientTransform="translate(-2980.78 2909.58) scale(2.64)" gradientUnits="userSpaceOnUse"><stop offset="0" stop-color="#5cbcbc" stop-opacity="0.7"/><stop offset="1" stop-opacity="0"/></linearGradient><radialGradient id="radial-gradient" cx="1114.62" cy="-1107.2" r="141.38" gradientTransform="translate(-2811.71 2995.23) scale(2.64)" gradientUnits="userSpaceOnUse"><stop offset="0.05" stop-color="#fff" stop-opacity="0.35"/><stop offset="1" stop-color="#fff" stop-opacity="0"/></radialGradient></defs><title>NK-logo-glossy-basic</title><g id="NinjaKiwi_Text_copy_0_Layer1_0_FILL" data-name="NinjaKiwi Text copy 0 Layer1 0 FILL"><path class="cls-1" d="M831.56,88.37A16.43,16.43,0,0,0,823.32,80a21.89,21.89,0,0,0-10.93-3,25.44,25.44,0,0,0-11.33,3,21.84,21.84,0,0,0-8.24,8.32,22.17,22.17,0,0,0-3,11.25,21.89,21.89,0,0,0,3,10.93,20.52,20.52,0,0,0,19.56,11.25,22.89,22.89,0,0,0,10.93-2.61,29.25,29.25,0,0,0,8.63-8.63,22.89,22.89,0,0,0,2.61-10.93,19.84,19.84,0,0,0-3-11.25M1108,77.05a24.81,24.81,0,0,0-10.93,3,18.71,18.71,0,0,0-8.24,8.32,22.17,22.17,0,0,0-3,11.25,21.89,21.89,0,0,0,3,10.93,21.13,21.13,0,0,0,8.24,8.63,22.89,22.89,0,0,0,10.93,2.61,23.74,23.74,0,0,0,11.33-2.61,21.13,21.13,0,0,0,8.24-8.63,19.25,19.25,0,0,0,3-10.93,22.17,22.17,0,0,0-3-11.25,18.71,18.71,0,0,0-8.24-8.32,25.44,25.44,0,0,0-11.33-3m304,10.53q-22.57,0-22.57,22.18V321.61q0,23.29,22.57,23.29,21.78-.4,23-23.68V110.54q0-23-23-23M1553.81,191q8.71-8.24,8.32-24.08,0-21.07-23.29-21.07-15.84,0-22.26,10.93l-49.9,64.15-1.5.24q-20.46,1.46-21.15,23.29,0,21,19.8,22.1l52.75,65.9q6.81,11.33,22.26,10.93,23.29,0,23.29-21.07.4-15.76-8.32-24.08l-45-53.06,45-54.17m80.94-42.85h-22.57q-22.57.71-22.57,23.68-.4,21.86,22.57,21.86V321.61q0,22.89,22.89,22.89,22.57,0,22.57-22.89V170.74q0-22.57-22.89-22.57m309.91,23q0-23-22.18-23-23,0-23,23V299h-37.62Q1839,299,1839,275.68V171.13q0-23-22.57-23t-22.57,22.57V299h-37.62q-23,0-23-23.36V171.13q0-23-22.57-23-23,0-23,22.57V275q0,69.54,68.11,69.54l165.93.4q22.89-.4,22.89-23V171.13m76-23H1998q-23,.71-23,23.68,0,21.86,23,21.86V321.61q0,22.89,23,22.89,22.18,0,22.18-22.89V170.74q.08-22.58-22.5-22.58Z" transform="translate(0 0)"/></g><g id="NinjaKiwi_Text_copy_0_Layer0_0_FILL" data-name="NinjaKiwi Text copy 0 Layer0 0 FILL"><path class="cls-2" d="M680.68,193.7q23,0,23,23.29V321.61q0,23.29,22.57,23.29,23,0,23-23V217.78q0-69.62-68.11-69.62l-76,.4q-22.57,0-22.57,22.18V321.61q0,22.89,22.18,22.89,23,0,23-22.89V193.7h53M839.88,321.61V170.74q0-22.57-22.57-22.57h-23q-22.55.71-22.55,23.71,0,21.86,22.57,21.86V321.61q0,22.89,23,22.89,22.57,0,22.57-22.89M968.5,193.7q23,0,23,23.29V321.61q0,23.27,22.5,23.27t22.57-23V217.78q0-69.62-68.11-69.62l-75.64.4q-22.57,0-22.57,22.18V321.61q0,22.89,22.26,22.89,22.89,0,22.89-22.89V193.7h53.1m166.64-23q0-22.57-22.57-22.57h-22.18q-23.68,0-23.68,22.57,0,22.18,23.29,22.57v143q0,23.29-23.29,23.29h-15q-22.57,0-22.57,23,0,22.18,22.57,22.18h15.76q67.72,0,67.72-69.22V170.74m173.05-22.18-75.24-.4q-68.11,0-68.11,69.62V321.93q0,23,22.57,23,23,0,23-23.29V284h75.24v37.62q0,23.29,23,23.29,22.18,0,22.18-23.29V170.74q0-22.18-22.57-22.18m-74.84,45.14h52.27v44.75H1210.5V217q0-23.29,23-23.29m416-83.16a19.25,19.25,0,0,0,3-10.93,19.84,19.84,0,0,0-3-11.25,18.63,18.63,0,0,0-8.32-8.32,24.69,24.69,0,0,0-10.85-3A25.44,25.44,0,0,0,1619,80a18.71,18.71,0,0,0-8.24,8.32,22.17,22.17,0,0,0-3,11.25,21.89,21.89,0,0,0,3,10.93q2.22,4.91,8.24,8.63a23.74,23.74,0,0,0,11.33,2.61,22.43,22.43,0,0,0,10.85-2.61,21,21,0,0,0,8.32-8.63m389-10.93a22.17,22.17,0,0,0-3-11.25,21,21,0,0,0-8.63-8.32A21.35,21.35,0,0,0,2005,80a21,21,0,0,0-8.63,8.32,22.17,22.17,0,0,0-3,11.25,21.89,21.89,0,0,0,3,10.93,20.72,20.72,0,0,0,19.56,11.25,25.29,25.29,0,0,0,11.33-2.61q6-3.72,8.24-8.63a21.89,21.89,0,0,0,2.83-10.94Z" transform="translate(0 0)"/></g><g id="NK_logo_1_0_Layer9_0_FILL" data-name="NK logo 1 0 Layer9 0 FILL"><path class="cls-1" d="M497.65,255q0-100.49-71-171.56t-171.56-71q-100.59,0-171.56,71T12.47,255q0,100.28,71.08,171.36t171.56,71q100.49,0,171.56-71T497.65,255Z" transform="translate(0 0)"/></g><g id="NK_logo_1_0_Layer8_0_FILL" data-name="NK logo 1 0 Layer8 0 FILL"><path class="cls-3" d="M323.39,23.88l-5.61-2.7Q294.4,10,286.19,8.29q-4.47-.83-18.29-.83-16.52,0-23.59-.52a65,65,0,0,1-16-2.91Q143.62,14,81,76.67,6.23,151.41,6.23,257.09,6.23,362.56,81,437.28q7.79,7.79,15.9,14.76L99,453q2.81,1.35,27.12,14.65,17.46,9.66,28,13.09,7.07,1.87,22.76,7.38A158.7,158.7,0,0,0,208,494.75l3.12.42,2.6-12.68q-65.26-13-115-62.87Q31.17,352.17,31.17,257.09q0-95.29,67.44-162.73T261.34,27a237.62,237.62,0,0,1,59.44,7.27Z" transform="translate(0 0)"/></g><g id="NK_logo_1_0_Layer6_0_FILL" data-name="NK logo 1 0 Layer6 0 FILL"><path class="cls-4" d="M503.78,232.56a150.57,150.57,0,0,1-2.91-21.09q-.26-3.82-.42-7.07-20.53,38.17-40.31,57.48Q416.91,304.28,345.73,337,268.31,372.75,202,374.88H159.6Q72.73,372.7,20.25,321.47a162.58,162.58,0,0,1-13.7-15.13q1.66,15.87,25.87,59.75,18.81,34.29,29.51,49.57,6.65,9.35,24.21,23A316.74,316.74,0,0,0,129,466.48Q190.1,500,241.12,500q46.66,0,79.29-7.27t57.88-23.07q23.59-14.86,46.55-40.94,18.81-21.51,45.52-60.69,11-16.11,19.85-39a262.34,262.34,0,0,0,12-39.38q2.18-10.18,2.91-43.75v-8.11Q504.39,235.38,503.78,232.56Z" transform="translate(0 0)"/></g><path id="NK_logo_1_0_Layer5_0_1_STROKES" data-name="NK logo 1 0 Layer5 0 1 STROKES" class="cls-5" d="M497.65,255q0,100.28-71,171.36t-171.56,71q-100.59,0-171.56-71T12.47,255q0-100.49,71.08-171.56t171.56-71q100.49,0,171.56,71T497.65,255Z" transform="translate(0 0)"/><g id="NK_logo_1_0_Layer4_0_FILL" data-name="NK logo 1 0 Layer4 0 FILL"><path class="cls-6" d="M483.83,229.14A244.33,244.33,0,0,1,485.18,255q0,95.11-67.34,162.52T255.11,484.88q-95.41,0-162.73-67.34-37.63-37.66-54.24-83.87a176.51,176.51,0,0,1-17.87-15.28A161.2,161.2,0,0,1,3.53,299.28Q16.21,376.7,74.71,435.2q74.61,74.61,180.4,74.61t180.4-74.61Q510.12,360.48,510.12,255a266.66,266.66,0,0,0-6.55-59.75A351,351,0,0,1,483.83,229.14Z" transform="translate(0 0)"/></g><g id="NK_logo_1_0_Layer3_0_FILL" data-name="NK logo 1 0 Layer3 0 FILL"><path d="M403.91,137.21q16.17-.87,31.25,11.58a61,61,0,0,1,11.58,12.68l6.12-14.86q-2.84-3.93-9.4-8.52-12.89-9.18-30.81-12.46-17.92-3.06-38.46,1.75-6,2-9,3.06,3.87-2,11.15-8.3,10.27-8.74,16.39-11.15,7.21-3.06,17.7.44a45.63,45.63,0,0,1,9.18,3.93l7.65-16.17q-2.19-1.75-7.65-2.84-11.15-2.62-28.41-.22-14.42,1.75-22.29,15.52-8.09,13.55-19.67,15.08-7.87,1.09-12.24-4.59-4.81-8.09-7.43-12.68-11.36-19.45-40-18.79-30.81.87-40.21,23.16-4.15,22.51-9.4,23.38-3.06.44-20.32-4.37-21.64-5.9-51.14-7.65-31.91-2-58.57,6.34l-20.11,8.74,20.76-.44q26.22-.44,53.32.44A210.36,210.36,0,0,1,250.66,161q6.18,2.85,8.34,14.85a53.72,53.72,0,0,1,.87,11.58,437.37,437.37,0,0,0-47.42.44,125.13,125.13,0,0,0-33.65,6.56l-13.33,5.24,29.07-1.09q30.38-1.53,37.81-2.4,6.56-.87,30.16-.22,23.38.66,25.57.22,5.46-1.09,5-5.24l6.12,2.19q7.43,3.72,14.2,12.68t0,15.08l-8.09,4.37a158.72,158.72,0,0,0-22.51-.22,202.61,202.61,0,0,0-52,9.18q-22.95,7.21-35.62,21.42-15.52,17-19.45,19.23-11.15,6.12-34.09,3.72l-20.51-3.74q2.4-36.28,2-47.64-.22-7-10.71-14.86l-10.31-6.5,8.09,34.75a28.08,28.08,0,0,1-2.4,20.25q-7.21-19.23-9.83-33-1.53-8.52-11.15-16.39l-9.18-6.12,9.62,27.1a29.21,29.21,0,0,1,.87,16,26.16,26.16,0,0,1-2.4,7.43q-3.93-12.68-7.65-21.64-2.19-5.68-10.49-11.15l-8.09-4.37,9.62,17.48q9.18,19.89,7,32.34-2.62,14.64,7,27.1,9.18,12,17.92,7.65,5.68-2.62,11.36-5.9a107,107,0,0,1,16.39-5.9q15.52-4.59,35.4-.66,23.6,4.59,38,19.67,13.11,13.77,43.93,12.68a135.62,135.62,0,0,0,28.19-3.93A235.84,235.84,0,0,1,261,348.75q-5.46,10.05,3.5,23.16a52.32,52.32,0,0,0,9.83,11.15q-35.4,13.77-45.46,21-32.34,22.07,0,54,19.23,19.23,32.78,2.84A44.94,44.94,0,0,0,269.74,446a15.86,15.86,0,0,1-6.56,5.46q-5.46,2.84-2.4-8.52,4.81-14.86,5.68-20.54a14.77,14.77,0,0,1,8.3-11.15q3.5-1.75,22.51-6.77,10.71-2.84,32.78-7,21.2-5.9,44.14-21.42,23.17-15.52,24.26-28.85a12.63,12.63,0,0,0-1.31-7.43l-2-2.62,12.46,14a95.8,95.8,0,0,0,37.59,21.64q21,6.34,46.33.22a96.38,96.38,0,0,0,21.2-7.43Q504,364.1,499.39,361q-2.84-2-2.19-7.21l1.09-5a361.62,361.62,0,0,1-44.36,16q-14.64,4.15-28.41-8.52l-10.93-13.55,18.36,5.9q20.11,5.46,29.72,2.84,5.9-1.53,21.2-9.4,12-5.9,18.58-5.46,7.43.66,16.61,12.89A85.73,85.73,0,0,1,527,361.65l4.15-14.86a47.69,47.69,0,0,0-7.43-9.62A46,46,0,0,0,501,324.28q-12.24-2.62-27.54,6.12-24.48,14-27.1,14.86-12.5,4.62-25.17-4.38l-10-9.83q-2.19,5.46,12.68-71,9.18-47-32.78-83-10.93-9.4-30.38-21.42-14.42-9.18-14.86-11.58-.87-5.9,18.79-6.56Q375.94,137.21,403.91,137.21Z" transform="translate(0 0)"/></g><g id="NK_logo_1_0_Layer1_0_FILL" data-name="NK logo 1 0 Layer1 0 FILL"><path class="cls-2" d="M295.3,128.47l-36.71,11.58a8.47,8.47,0,0,0,2.4,2.62q4.81,3.28,15.3,2.19l1.53-.22,1.53-1.09A70.15,70.15,0,0,0,295.3,128.47Z" transform="translate(0 0)"/></g><g id="NK_logo_1_0_Layer0_0_FILL" data-name="NK logo 1 0 Layer0 0 FILL"><path class="cls-7" d="M510.12,255q0-105.68-74.61-180.4T255.11,0Q149.32,0,74.71,74.61T0,255Q0,360.48,74.72,435.2t180.4,74.61q105.68,0,180.4-74.61T510.12,255Z" transform="translate(0 0)"/></g></svg>